<svg width="1200" height="336" viewBox="0 0 1200 336" fill="none" xmlns="http://www.w3.org/2000/svg">
<path d="M1180.5 36.5V246C1180.5 282.727 1150.73 312.5 1114 312.5H0.5V36.5H1180.5Z" fill="#1E1E1E"/>
<path d="M1180.5 36.5V246C1180.5 282.727 1150.73 312.5 1114 312.5H0.5V36.5H1180.5Z" stroke="black"/>
<path d="M104.878 175V168.612L130.283 132.965H104.828V124.091H143.805V130.479L118.376 166.126H143.855V175H104.878ZM151.915 175V136.818H162.505V175H151.915ZM157.235 131.896C155.661 131.896 154.31 131.374 153.183 130.33C152.073 129.27 151.518 128.002 151.518 126.527C151.518 125.069 152.073 123.817 153.183 122.773C154.31 121.713 155.661 121.183 157.235 121.183C158.809 121.183 160.152 121.713 161.262 122.773C162.389 123.817 162.952 125.069 162.952 126.527C162.952 128.002 162.389 129.27 161.262 130.33C160.152 131.374 158.809 131.896 157.235 131.896ZM188.388 175.746C184.461 175.746 181.08 174.95 178.246 173.359C175.429 171.752 173.258 169.482 171.733 166.548C170.209 163.598 169.446 160.11 169.446 156.083C169.446 152.156 170.209 148.709 171.733 145.742C173.258 142.776 175.404 140.464 178.172 138.807C180.956 137.15 184.22 136.321 187.966 136.321C190.484 136.321 192.829 136.727 195 137.539C197.188 138.335 199.094 139.536 200.718 141.143C202.358 142.751 203.634 144.773 204.546 147.209C205.457 149.628 205.913 152.462 205.913 155.71V158.619H173.672V152.056H195.945C195.945 150.531 195.614 149.181 194.951 148.004C194.288 146.828 193.368 145.908 192.191 145.245C191.031 144.566 189.681 144.226 188.14 144.226C186.532 144.226 185.107 144.599 183.864 145.344C182.638 146.074 181.676 147.06 180.98 148.303C180.284 149.529 179.928 150.896 179.912 152.404V158.643C179.912 160.533 180.26 162.165 180.956 163.54C181.668 164.916 182.671 165.977 183.963 166.722C185.256 167.468 186.789 167.841 188.562 167.841C189.739 167.841 190.816 167.675 191.794 167.344C192.771 167.012 193.608 166.515 194.304 165.852C195 165.189 195.531 164.377 195.895 163.416L205.689 164.062C205.192 166.416 204.173 168.471 202.632 170.227C201.107 171.967 199.135 173.326 196.716 174.304C194.313 175.265 191.537 175.746 188.388 175.746ZM220.989 136.818L227.999 150.167L235.183 136.818H246.046L234.984 155.909L246.344 175H235.531L227.999 161.8L220.592 175H209.654L220.989 155.909L210.052 136.818H220.989Z" fill="white"/>
<path d="M102.396 213.178C102.396 211.244 102.858 209.758 103.782 208.72C104.706 207.681 106.042 207.162 107.789 207.162C109.092 207.162 110.167 207.477 111.012 208.107C111.857 208.73 112.38 209.572 112.58 210.632L110.518 210.782C110.403 210.131 110.117 209.618 109.658 209.246C109.2 208.867 108.548 208.677 107.703 208.677C106.572 208.677 105.741 209.028 105.211 209.729C104.688 210.431 104.427 211.566 104.427 213.135C104.427 214.725 104.688 215.888 105.211 216.626C105.741 217.356 106.568 217.722 107.692 217.722C108.466 217.722 109.107 217.532 109.615 217.152C110.124 216.773 110.439 216.193 110.561 215.412L112.602 215.541C112.508 216.229 112.247 216.855 111.817 217.421C111.395 217.979 110.833 218.42 110.131 218.742C109.429 219.057 108.645 219.215 107.778 219.215C106.024 219.215 104.688 218.699 103.771 217.668C102.855 216.637 102.396 215.14 102.396 213.178ZM125.997 213.178C125.997 215.133 125.546 216.63 124.644 217.668C123.748 218.699 122.452 219.215 120.755 219.215C119.093 219.215 117.819 218.692 116.931 217.646C116.05 216.601 115.609 215.111 115.609 213.178C115.609 211.18 116.061 209.679 116.963 208.677C117.872 207.667 119.158 207.162 120.819 207.162C122.567 207.162 123.867 207.66 124.719 208.655C125.571 209.651 125.997 211.158 125.997 213.178ZM123.967 213.178C123.967 211.638 123.72 210.489 123.226 209.729C122.739 208.97 121.947 208.591 120.852 208.591C119.742 208.591 118.929 208.978 118.413 209.751C117.897 210.524 117.64 211.667 117.64 213.178C117.64 214.682 117.897 215.827 118.413 216.615C118.929 217.396 119.702 217.786 120.733 217.786C121.872 217.786 122.696 217.403 123.204 216.637C123.713 215.87 123.967 214.717 123.967 213.178ZM136.75 219V211.534C136.75 210.56 136.56 209.837 136.181 209.364C135.808 208.892 135.21 208.655 134.387 208.655C133.499 208.655 132.768 208.981 132.195 209.633C131.63 210.277 131.347 211.155 131.347 212.265V219H129.413V209.858C129.413 208.505 129.392 207.678 129.349 207.377H131.175C131.182 207.413 131.189 207.509 131.196 207.667C131.203 207.825 131.211 208.007 131.218 208.215C131.232 208.415 131.246 208.799 131.261 209.364H131.293C132.045 207.896 133.284 207.162 135.01 207.162C136.249 207.162 137.173 207.499 137.781 208.172C138.39 208.838 138.694 209.866 138.694 211.255V219H136.75ZM152.025 215.681C152.025 216.784 151.606 217.65 150.769 218.28C149.938 218.903 148.785 219.215 147.31 219.215C145.834 219.215 144.71 218.986 143.937 218.527C143.17 218.062 142.669 217.331 142.433 216.336L144.141 216.003C144.277 216.619 144.567 217.07 145.011 217.356C145.462 217.636 146.228 217.775 147.31 217.775C149.243 217.775 150.21 217.163 150.21 215.938C150.21 215.48 150.035 215.111 149.684 214.832C149.333 214.546 148.796 214.313 148.072 214.134C146.182 213.668 144.982 213.303 144.474 213.038C143.965 212.773 143.575 212.444 143.303 212.05C143.031 211.649 142.895 211.151 142.895 210.557C142.895 209.504 143.274 208.68 144.033 208.086C144.792 207.492 145.892 207.194 147.331 207.194C148.591 207.194 149.598 207.434 150.35 207.914C151.102 208.387 151.571 209.078 151.757 209.987L150.017 210.202C149.938 209.687 149.684 209.296 149.254 209.031C148.824 208.766 148.183 208.634 147.331 208.634C145.576 208.634 144.699 209.174 144.699 210.256C144.699 210.686 144.846 211.029 145.14 211.287C145.44 211.545 145.92 211.753 146.579 211.91L147.857 212.243C149.025 212.53 149.863 212.812 150.371 213.092C150.887 213.371 151.291 213.722 151.585 214.145C151.879 214.56 152.025 215.072 152.025 215.681ZM155.893 208.902V207.377H157.719L158.342 204.348H159.631V207.377H164.271V208.902H159.631V215.906C159.631 216.472 159.781 216.891 160.082 217.163C160.39 217.435 160.891 217.571 161.586 217.571C162.546 217.571 163.609 217.45 164.776 217.206V218.678C163.566 219.007 162.367 219.172 161.178 219.172C160.018 219.172 159.147 218.928 158.567 218.441C157.987 217.947 157.697 217.17 157.697 216.11V208.902H155.893Z" fill="#569CD6"/>
<path d="M357.728 213.307C357.728 215.276 358.032 217.056 358.641 218.646C359.249 220.235 360.241 221.875 361.616 223.565H359.575C358.2 221.875 357.212 220.239 356.61 218.656C356.016 217.066 355.719 215.276 355.719 213.285C355.719 211.33 356.012 209.568 356.6 208C357.187 206.424 358.179 204.777 359.575 203.059H361.616C360.241 204.749 359.249 206.392 358.641 207.989C358.032 209.579 357.728 211.352 357.728 213.307ZM476.289 210.589V207.377H478.813V210.589H476.289ZM474.742 222.899L476.558 215.788H479.404L476.063 222.899H474.742Z" fill="#D4D4D4"/>
<path d="M191.213 219H189.021L187.485 213.94L186.873 211.771L186.454 213.264L184.649 219H182.469L180.503 207.377H182.415L183.414 213.897C183.65 215.788 183.769 216.955 183.769 217.399C184.048 216.254 184.256 215.487 184.392 215.101L185.842 210.546H187.915L189.312 215.111C189.541 215.863 189.738 216.626 189.902 217.399C189.902 217.185 189.917 216.916 189.945 216.594C189.974 216.271 190.01 215.942 190.053 215.605C190.096 215.262 190.139 214.936 190.182 214.628C190.225 214.32 190.257 214.076 190.278 213.897L191.363 207.377H193.254L191.213 219ZM196.949 213.597C196.949 214.9 197.236 215.921 197.809 216.658C198.389 217.396 199.18 217.765 200.183 217.765C200.92 217.765 201.565 217.607 202.116 217.292C202.675 216.97 203.047 216.533 203.233 215.981L204.931 216.465C204.616 217.353 204.035 218.033 203.19 218.506C202.353 218.979 201.35 219.215 200.183 219.215C198.493 219.215 197.193 218.688 196.283 217.636C195.374 216.583 194.919 215.076 194.919 213.113C194.919 211.201 195.363 209.733 196.251 208.709C197.146 207.678 198.435 207.162 200.118 207.162C201.801 207.162 203.076 207.674 203.942 208.698C204.809 209.722 205.242 211.269 205.242 213.339V213.597H196.949ZM200.14 208.591C199.18 208.591 198.421 208.906 197.862 209.536C197.304 210.159 197.007 211.019 196.971 212.114H203.244C203.044 209.765 202.009 208.591 200.14 208.591ZM218.412 213.135C218.412 215.169 218.047 216.69 217.316 217.7C216.593 218.71 215.555 219.215 214.201 219.215C212.454 219.215 211.258 218.556 210.613 217.238H210.592C210.592 217.582 210.577 217.94 210.549 218.312C210.527 218.685 210.509 218.914 210.495 219H208.626C208.669 218.613 208.69 217.815 208.69 216.604V203.059H210.624V207.603C210.624 208.068 210.61 208.63 210.581 209.289H210.624C211.276 207.857 212.472 207.141 214.212 207.141C217.012 207.141 218.412 209.139 218.412 213.135ZM216.414 213.199C216.414 211.595 216.192 210.435 215.748 209.719C215.311 208.995 214.624 208.634 213.686 208.634C212.618 208.634 211.841 209.028 211.354 209.815C210.868 210.596 210.624 211.781 210.624 213.371C210.624 214.868 210.86 215.978 211.333 216.701C211.806 217.424 212.583 217.786 213.664 217.786C214.631 217.786 215.329 217.414 215.759 216.669C216.196 215.917 216.414 214.76 216.414 213.199Z" fill="#4ADE80"/>
<path d="M234.375 209.805V208.215H245.063V209.805H234.375ZM234.375 215.305V213.715H245.063V215.305H234.375ZM467.255 213.285C467.255 215.29 466.958 217.084 466.363 218.667C465.776 220.243 464.795 221.875 463.42 223.565H461.357C462.761 221.84 463.764 220.182 464.365 218.592C464.967 216.995 465.268 215.233 465.268 213.307C465.268 211.387 464.967 209.633 464.365 208.043C463.764 206.446 462.761 204.785 461.357 203.059H463.42C464.816 204.777 465.805 206.417 466.385 207.979C466.965 209.54 467.255 211.309 467.255 213.285Z" fill="white"/>
<path d="M272.327 210.89C272.327 213.024 272.03 214.725 271.436 215.992C270.848 217.253 270.053 217.883 269.051 217.883C268.027 217.883 267.515 217.321 267.515 216.196V216.11L267.536 215.788H267.472C267.228 216.418 266.884 216.927 266.44 217.313C266.004 217.693 265.506 217.883 264.947 217.883C264.188 217.883 263.594 217.525 263.164 216.809C262.742 216.092 262.53 215.072 262.53 213.747C262.53 212.594 262.702 211.506 263.046 210.481C263.397 209.457 263.869 208.652 264.464 208.064C265.065 207.47 265.735 207.173 266.473 207.173C266.981 207.173 267.396 207.323 267.719 207.624C268.048 207.918 268.292 208.387 268.449 209.031H268.503L268.847 207.409H270.093L269.029 212.855C268.743 214.359 268.6 215.355 268.6 215.842C268.6 216.472 268.775 216.787 269.126 216.787C269.685 216.787 270.139 216.254 270.49 215.187C270.848 214.119 271.027 212.694 271.027 210.911C271.027 208.949 270.637 207.359 269.856 206.142C269.076 204.917 268.041 204.305 266.752 204.305C265.692 204.305 264.754 204.691 263.938 205.465C263.121 206.231 262.491 207.312 262.047 208.709C261.603 210.105 261.381 211.695 261.381 213.479C261.381 215.691 261.796 217.46 262.627 218.785C263.458 220.11 264.596 220.772 266.043 220.772C266.716 220.772 267.364 220.647 267.987 220.396C268.61 220.146 269.284 219.705 270.007 219.075L270.77 220.01C269.946 220.719 269.147 221.234 268.374 221.557C267.601 221.879 266.788 222.04 265.936 222.04C264.754 222.04 263.712 221.693 262.81 220.998C261.914 220.303 261.227 219.304 260.747 218.001C260.267 216.69 260.027 215.183 260.027 213.479C260.027 211.43 260.303 209.615 260.854 208.032C261.406 206.442 262.194 205.218 263.218 204.358C264.242 203.492 265.427 203.059 266.773 203.059C267.905 203.059 268.886 203.384 269.717 204.036C270.555 204.681 271.199 205.597 271.65 206.786C272.102 207.968 272.327 209.336 272.327 210.89ZM267.88 210.578C267.88 209.819 267.755 209.246 267.504 208.859C267.253 208.465 266.917 208.269 266.494 208.269C266.043 208.269 265.628 208.508 265.248 208.988C264.868 209.461 264.561 210.134 264.324 211.008C264.095 211.874 263.98 212.78 263.98 213.726C263.98 215.738 264.389 216.744 265.205 216.744C265.735 216.744 266.211 216.404 266.634 215.724C267.056 215.043 267.368 214.141 267.568 213.017C267.776 211.892 267.88 211.079 267.88 210.578ZM280.771 217.475H284.853V219H274.304V217.475H278.837V208.902H275.41V207.377H280.771V217.475ZM278.622 205.121V203.059H280.771V205.121H278.622ZM291.685 219V211.631C291.685 210.528 291.595 209.758 291.416 209.321C291.244 208.877 290.925 208.655 290.46 208.655C290.002 208.655 289.629 208.999 289.343 209.687C289.063 210.374 288.924 211.305 288.924 212.479V219H287.108V209.858C287.108 208.505 287.087 207.678 287.044 207.377H288.645L288.709 208.741V209.257H288.73C288.974 208.526 289.282 207.996 289.654 207.667C290.027 207.33 290.492 207.162 291.051 207.162C291.681 207.162 292.15 207.334 292.458 207.678C292.773 208.021 292.999 208.551 293.135 209.268H293.156C293.443 208.508 293.783 207.968 294.177 207.646C294.578 207.323 295.083 207.162 295.691 207.162C296.536 207.162 297.142 207.47 297.507 208.086C297.872 208.702 298.055 209.758 298.055 211.255V219H296.25V211.631C296.25 210.528 296.16 209.758 295.981 209.321C295.81 208.877 295.491 208.655 295.025 208.655C294.553 208.655 294.177 208.956 293.897 209.558C293.625 210.159 293.489 211.062 293.489 212.265V219H291.685ZM310.902 213.135C310.902 217.188 309.499 219.215 306.691 219.215C304.93 219.215 303.744 218.556 303.136 217.238H303.082C303.111 217.296 303.125 217.89 303.125 219.021V223.565H301.181V209.783C301.181 208.566 301.159 207.764 301.116 207.377H302.996C303.003 207.406 303.014 207.513 303.028 207.699C303.043 207.878 303.057 208.147 303.071 208.505C303.093 208.856 303.104 209.117 303.104 209.289H303.146C303.505 208.537 303.959 207.993 304.511 207.656C305.069 207.312 305.796 207.141 306.691 207.141C308.109 207.141 309.166 207.631 309.86 208.612C310.555 209.586 310.902 211.094 310.902 213.135ZM308.904 213.135C308.904 211.516 308.686 210.363 308.249 209.676C307.812 208.981 307.125 208.634 306.187 208.634C305.105 208.634 304.325 209.028 303.845 209.815C303.365 210.596 303.125 211.781 303.125 213.371C303.125 214.896 303.365 216.014 303.845 216.723C304.325 217.432 305.098 217.786 306.165 217.786C307.118 217.786 307.812 217.424 308.249 216.701C308.686 215.978 308.904 214.789 308.904 213.135ZM324.19 213.178C324.19 215.133 323.739 216.63 322.837 217.668C321.942 218.699 320.646 219.215 318.948 219.215C317.287 219.215 316.012 218.692 315.124 217.646C314.243 216.601 313.803 215.111 313.803 213.178C313.803 211.18 314.254 209.679 315.156 208.677C316.066 207.667 317.351 207.162 319.013 207.162C320.76 207.162 322.06 207.66 322.912 208.655C323.764 209.651 324.19 211.158 324.19 213.178ZM322.16 213.178C322.16 211.638 321.913 210.489 321.419 209.729C320.932 208.97 320.141 208.591 319.045 208.591C317.935 208.591 317.122 208.978 316.606 209.751C316.091 210.524 315.833 211.667 315.833 213.178C315.833 214.682 316.091 215.827 316.606 216.615C317.122 217.396 317.896 217.786 318.927 217.786C320.065 217.786 320.889 217.403 321.397 216.637C321.906 215.87 322.16 214.717 322.16 213.178ZM336.845 209.139C336.043 209.003 335.284 208.935 334.567 208.935C333.414 208.935 332.483 209.368 331.774 210.234C331.065 211.101 330.711 212.204 330.711 213.543V219H328.777V211.47C328.777 210.925 328.727 210.285 328.627 209.547C328.534 208.809 328.398 208.086 328.219 207.377H330.056C330.342 208.365 330.514 209.26 330.571 210.062H330.625C330.983 209.26 331.334 208.673 331.678 208.301C332.021 207.921 332.43 207.638 332.902 207.452C333.375 207.259 333.951 207.162 334.632 207.162C335.377 207.162 336.114 207.223 336.845 207.345V209.139ZM340.873 208.902V207.377H342.699L343.322 204.348H344.611V207.377H349.252V208.902H344.611V215.906C344.611 216.472 344.762 216.891 345.062 217.163C345.37 217.435 345.872 217.571 346.566 217.571C347.526 217.571 348.59 217.45 349.757 217.206V218.678C348.547 219.007 347.347 219.172 346.158 219.172C344.998 219.172 344.128 218.928 343.548 218.441C342.968 217.947 342.678 217.17 342.678 216.11V208.902H340.873Z" fill="#FFD885"/>
<path d="M372.605 209.923H371.091L370.65 203.059H373.057L372.605 209.923ZM389.857 215.681C389.857 216.784 389.438 217.65 388.601 218.28C387.77 218.903 386.617 219.215 385.142 219.215C383.666 219.215 382.542 218.986 381.769 218.527C381.002 218.062 380.501 217.331 380.265 216.336L381.973 216.003C382.109 216.619 382.399 217.07 382.843 217.356C383.294 217.636 384.06 217.775 385.142 217.775C387.075 217.775 388.042 217.163 388.042 215.938C388.042 215.48 387.867 215.111 387.516 214.832C387.165 214.546 386.628 214.313 385.904 214.134C384.014 213.668 382.814 213.303 382.306 213.038C381.797 212.773 381.407 212.444 381.135 212.05C380.863 211.649 380.727 211.151 380.727 210.557C380.727 209.504 381.106 208.68 381.865 208.086C382.624 207.492 383.724 207.194 385.163 207.194C386.424 207.194 387.43 207.434 388.182 207.914C388.934 208.387 389.403 209.078 389.589 209.987L387.849 210.202C387.77 209.687 387.516 209.296 387.086 209.031C386.656 208.766 386.015 208.634 385.163 208.634C383.409 208.634 382.531 209.174 382.531 210.256C382.531 210.686 382.678 211.029 382.972 211.287C383.272 211.545 383.752 211.753 384.411 211.91L385.689 212.243C386.857 212.53 387.695 212.812 388.203 213.092C388.719 213.371 389.123 213.722 389.417 214.145C389.711 214.56 389.857 215.072 389.857 215.681ZM403.393 213.135C403.393 217.188 401.989 219.215 399.182 219.215C397.42 219.215 396.235 218.556 395.626 217.238H395.572C395.601 217.296 395.615 217.89 395.615 219.021V223.565H393.671V209.783C393.671 208.566 393.649 207.764 393.606 207.377H395.486C395.493 207.406 395.504 207.513 395.519 207.699C395.533 207.878 395.547 208.147 395.562 208.505C395.583 208.856 395.594 209.117 395.594 209.289H395.637C395.995 208.537 396.45 207.993 397.001 207.656C397.56 207.312 398.286 207.141 399.182 207.141C400.6 207.141 401.656 207.631 402.351 208.612C403.045 209.586 403.393 211.094 403.393 213.135ZM401.395 213.135C401.395 211.516 401.176 210.363 400.739 209.676C400.302 208.981 399.615 208.634 398.677 208.634C397.595 208.634 396.815 209.028 396.335 209.815C395.855 210.596 395.615 211.781 395.615 213.371C395.615 214.896 395.855 216.014 396.335 216.723C396.815 217.432 397.588 217.786 398.655 217.786C399.608 217.786 400.302 217.424 400.739 216.701C401.176 215.978 401.395 214.789 401.395 213.135ZM408.355 213.597C408.355 214.9 408.642 215.921 409.215 216.658C409.795 217.396 410.586 217.765 411.589 217.765C412.326 217.765 412.971 217.607 413.522 217.292C414.081 216.97 414.453 216.533 414.64 215.981L416.337 216.465C416.022 217.353 415.442 218.033 414.597 218.506C413.759 218.979 412.756 219.215 411.589 219.215C409.899 219.215 408.599 218.688 407.689 217.636C406.78 216.583 406.325 215.076 406.325 213.113C406.325 211.201 406.769 209.733 407.657 208.709C408.552 207.678 409.841 207.162 411.524 207.162C413.207 207.162 414.482 207.674 415.349 208.698C416.215 209.722 416.648 211.269 416.648 213.339V213.597H408.355ZM411.546 208.591C410.586 208.591 409.827 208.906 409.269 209.536C408.71 210.159 408.413 211.019 408.377 212.114H414.65C414.45 209.765 413.415 208.591 411.546 208.591ZM421.568 213.597C421.568 214.9 421.855 215.921 422.428 216.658C423.008 217.396 423.799 217.765 424.802 217.765C425.539 217.765 426.184 217.607 426.735 217.292C427.294 216.97 427.666 216.533 427.853 215.981L429.55 216.465C429.235 217.353 428.655 218.033 427.81 218.506C426.972 218.979 425.969 219.215 424.802 219.215C423.112 219.215 421.812 218.688 420.902 217.636C419.993 216.583 419.538 215.076 419.538 213.113C419.538 211.201 419.982 209.733 420.87 208.709C421.765 207.678 423.054 207.162 424.737 207.162C426.42 207.162 427.695 207.674 428.562 208.698C429.428 209.722 429.861 211.269 429.861 213.339V213.597H421.568ZM424.759 208.591C423.799 208.591 423.04 208.906 422.481 209.536C421.923 210.159 421.626 211.019 421.59 212.114H427.863C427.663 209.765 426.628 208.591 424.759 208.591ZM440.582 217.131C440.231 217.883 439.766 218.431 439.186 218.774C438.605 219.111 437.882 219.279 437.016 219.279C435.569 219.279 434.506 218.782 433.825 217.786C433.145 216.791 432.805 215.29 432.805 213.285C432.805 209.232 434.208 207.205 437.016 207.205C437.882 207.205 438.605 207.359 439.186 207.667C439.773 207.975 440.242 208.48 440.593 209.182H440.614L440.593 207.56V203.059H442.526V216.604C442.526 217.815 442.548 218.613 442.591 219H440.743C440.715 218.893 440.689 218.631 440.668 218.216C440.646 217.8 440.636 217.439 440.636 217.131H440.582ZM434.803 213.221C434.803 214.811 435.014 215.971 435.437 216.701C435.866 217.424 436.561 217.786 437.521 217.786C438.566 217.786 439.34 217.41 439.841 216.658C440.342 215.899 440.593 214.696 440.593 213.049C440.593 211.509 440.349 210.388 439.862 209.687C439.382 208.985 438.609 208.634 437.542 208.634C436.575 208.634 435.877 209.003 435.447 209.74C435.018 210.478 434.803 211.638 434.803 213.221ZM451.883 209.923H450.368L449.928 203.059H452.334L451.883 209.923Z" fill="#CE9178"/>
<g clip-path="url(#clip0_1_1817)">
<path d="M1043.19 114.754H945.677V134.587H1043.19V114.754Z" fill="#4ADE80"/>
<path d="M1056.08 134.586L1035.75 114.506H1076.4L1056.08 134.586Z" fill="#4ADE80"/>
<path d="M1057.58 132.39L1042.81 118.324L996.658 162.27L1011.43 176.336L1057.58 132.39Z" fill="#4ADE80"/>
<path d="M1003.36 155.742L1024.4 175.823H982.317L1003.36 155.742Z" fill="#4ADE80"/>
<path d="M1029.47 187.473L1009 167.641H1049.94L1029.47 187.473Z" fill="#4ADE80"/>
<path d="M1031.9 184.941L1017.13 170.875L970.984 214.821L985.755 228.887L1031.9 184.941Z" fill="#4ADE80"/>
<path d="M971.129 214.248L991.453 234.329H950.804L971.129 214.248Z" fill="#4ADE80"/>
<path d="M991.457 234.081L970.99 214.744H1011.92L991.457 234.081Z" fill="#4ADE80"/>
<path d="M1079.55 214.248H986.003V234.081H1079.55V214.248Z" fill="#4ADE80"/>
<path d="M1060.53 214.746V195.096L1079.77 214.746H1060.53Z" fill="#4ADE80"/>
<path d="M964.712 134.025L964.649 153.675L945.469 133.969L964.712 134.025Z" fill="#4ADE80"/>
</g>
<defs>
<clipPath id="clip0_1_1817">
<rect width="134.531" height="120" fill="white" transform="translate(945.469 114.5)"/>
</clipPath>
</defs>
</svg>
