<svg width="1181" height="277" viewBox="0 0 1181 277" fill="none" xmlns="http://www.w3.org/2000/svg">
<style>

  .glow-ring {
    filter: blur(20px);
    transform-box: fill-box;
    transform-origin: center;
    animation: breathe 3s ease-in-out 1 forwards;
  }
  @keyframes breathe {
    0%, 100% { opacity: 0.5; transform: scale(1); }
    50%       { opacity: 1;   transform: scale(1.06); }
  }

  svg {
    position: relative;
    z-index: 1;
    filter: none;
    overflow: visible;
  }

  #ziex-text,
  .sub-left,
  .sub-right,
  #logo-mark {
    filter: drop-shadow(0 0 10px rgba(74,222,128,0.18));
  }

  /* ZIEX — fly in from left, then wait before restart */
  #ziex-text {
    opacity: 0;
    animation: flyLeftCycle 5s cubic-bezier(0.22,1,0.36,1) 0.05s 1 forwards;
  }
  /* subtitle text — fly in from left, then wait before restart */
  .sub-left {
    opacity: 0;
    animation: flyLeftCycle 5s cubic-bezier(0.22,1,0.36,1) 0.18s 1 forwards;
  }
  @keyframes flyLeftCycle {
    0%   { opacity: 0; transform: translateX(-140px); }
    13%  { opacity: 1; transform: translateX(0); }
    100% { opacity: 1; transform: translateX(0); }
  }

  /* logo mark — main wrapper */
  #logo-mark {
    opacity: 1;
    animation: none;
  }
  
  /* logo mark — pieces assemble as 4 large chunks horizontally */
  .logo-chunk {
    opacity: 0;
    transform-box: fill-box;
    transform-origin: center;
    animation: assemblePart 5s cubic-bezier(0.22,1,0.36,1) 1 forwards;
  }
  
  .chunk-left  { --from-x: -120px; --from-y: 0px; animation-delay: 0.1s; }
  .chunk-right { --from-x:  120px; --from-y: 0px; animation-delay: 0.1s; }

  @keyframes assemblePart {
    0%   { opacity: 0; transform: translate(var(--from-x), var(--from-y)) scale(0.92); }
    16%  { opacity: 1; transform: translate(0, 0) scale(1); }
    84%  { opacity: 1; transform: translate(0, 0) scale(1); }
    99%  { opacity: 1; transform: translate(0, 0) scale(1); }
    100% { opacity: 1; transform: translate(0, 0) scale(1); }
  }
  
  /* brackets/punct — fly in from right, then wait before restart */
  .sub-right {
    opacity: 0;
    animation: flyRightCycle 5s cubic-bezier(0.22,1,0.36,1) 0.18s 1 forwards;
  }
  @keyframes flyRightCycle {
    0%   { opacity: 0; transform: translateX(140px); }
    13%  { opacity: 1; transform: translateX(0); }
    100% { opacity: 1; transform: translateX(0); }
  }

  /* cursor blink */
  .cursor-blink {
    animation: blink 1.1s step-end 1 forwards;
  }
  @keyframes blink {
    0%, 100% { opacity: 1; }
    50%       { opacity: 0; }
  }

  /* sword shine — one pass after logo assembly, then wait */
  #shine-rect {
    animation: swordAfterAssemble 5s ease-in-out 1 forwards;
    opacity: 0;
    filter: drop-shadow(0 0 10px rgba(204,255,224,0.7));
  }
  @keyframes swordAfterAssemble {
    0%   { opacity: 0; transform: translateX(-260px) skewX(-18deg); }
    24%  { opacity: 0; transform: translateX(-260px) skewX(-18deg); }
    30%  { opacity: 1; }
    48%  { opacity: 1; transform: translateX(260px) skewX(-18deg); }
    55%  { opacity: 0; transform: translateX(320px) skewX(-18deg); }
    100% { opacity: 0; transform: translateX(320px) skewX(-18deg); }
  }
</style>

  <ellipse class="glow-ring" cx="1014" cy="138.5" rx="260" ry="90" fill="#4ADE80" fill-opacity="0.14"/>

    <path d="M0 0H1181V210C1181 247.003 1151 277 1114 277H0V0Z" fill="#0C1117"/>

    <g id="ziex-text">
      <path d="M103.878 139V132.612L129.283 96.9652H103.828V88.0909H142.805V94.4794L117.376 130.126H142.855V139H103.878Z" fill="white"/>
      <path d="M150.915 139V100.818H161.505V139H150.915ZM156.235 95.8963C154.661 95.8963 153.31 95.3743 152.183 94.3303C151.073 93.2696 150.518 92.0019 150.518 90.527C150.518 89.0687 151.073 87.8175 152.183 86.7734C153.31 85.7128 154.661 85.1825 156.235 85.1825C157.809 85.1825 159.152 85.7128 160.262 86.7734C161.389 87.8175 161.952 89.0687 161.952 90.527C161.952 92.0019 161.389 93.2696 160.262 94.3303C159.152 95.3743 157.809 95.8963 156.235 95.8963Z" fill="white"/>
      <path d="M187.388 139.746C183.461 139.746 180.08 138.95 177.246 137.359C174.429 135.752 172.258 133.482 170.733 130.548C169.209 127.598 168.446 124.11 168.446 120.083C168.446 116.156 169.209 112.709 170.733 109.742C172.258 106.776 174.404 104.464 177.172 102.807C179.956 101.15 183.22 100.321 186.966 100.321C189.484 100.321 191.829 100.727 194 101.539C196.188 102.335 198.094 103.536 199.718 105.143C201.358 106.751 202.634 108.773 203.546 111.209C204.457 113.628 204.913 116.462 204.913 119.71V122.619H172.672V116.056H194.945C194.945 114.531 194.614 113.181 193.951 112.004C193.288 110.828 192.368 109.908 191.191 109.245C190.031 108.566 188.681 108.226 187.14 108.226C185.532 108.226 184.107 108.599 182.864 109.344C181.638 110.074 180.676 111.06 179.98 112.303C179.284 113.529 178.928 114.896 178.912 116.404V122.643C178.912 124.533 179.26 126.165 179.956 127.54C180.668 128.916 181.671 129.977 182.963 130.722C184.256 131.468 185.789 131.841 187.562 131.841C188.739 131.841 189.816 131.675 190.794 131.344C191.771 131.012 192.608 130.515 193.304 129.852C194 129.189 194.531 128.377 194.895 127.416L204.689 128.062C204.192 130.416 203.173 132.471 201.632 134.227C200.107 135.967 198.135 137.326 195.716 138.304C193.313 139.265 190.537 139.746 187.388 139.746Z" fill="white"/>
      <path d="M219.989 100.818L226.999 114.167L234.183 100.818H245.046L233.984 119.909L245.344 139H234.531L226.999 125.8L219.592 139H208.654L219.989 119.909L209.052 100.818H219.989Z" fill="white"/>
    </g>

    <g class="sub-left">
      <path d="M101.396 177.178C101.396 175.244 101.858 173.758 102.782 172.72C103.706 171.681 105.042 171.162 106.789 171.162C108.092 171.162 109.167 171.477 110.012 172.107C110.857 172.73 111.38 173.572 111.58 174.632L109.518 174.782C109.403 174.131 109.117 173.618 108.658 173.246C108.2 172.867 107.548 172.677 106.703 172.677C105.572 172.677 104.741 173.028 104.211 173.729C103.688 174.431 103.427 175.566 103.427 177.135C103.427 178.725 103.688 179.888 104.211 180.626C104.741 181.356 105.568 181.722 106.692 181.722C107.466 181.722 108.107 181.532 108.615 181.152C109.124 180.773 109.439 180.193 109.561 179.412L111.602 179.541C111.508 180.229 111.247 180.855 110.817 181.421C110.395 181.979 109.833 182.42 109.131 182.742C108.429 183.057 107.645 183.215 106.778 183.215C105.024 183.215 103.688 182.699 102.771 181.668C101.855 180.637 101.396 179.14 101.396 177.178Z" fill="#569CD6"/>
      <path d="M124.997 177.178C124.997 179.133 124.546 180.63 123.644 181.668C122.748 182.699 121.452 183.215 119.755 183.215C118.093 183.215 116.819 182.692 115.931 181.646C115.05 180.601 114.609 179.111 114.609 177.178C114.609 175.18 115.061 173.679 115.963 172.677C116.872 171.667 118.158 171.162 119.819 171.162C121.567 171.162 122.867 171.66 123.719 172.655C124.571 173.651 124.997 175.158 124.997 177.178ZM122.967 177.178C122.967 175.638 122.72 174.489 122.226 173.729C121.739 172.97 120.947 172.591 119.852 172.591C118.742 172.591 117.929 172.978 117.413 173.751C116.897 174.524 116.64 175.667 116.64 177.178C116.64 178.682 116.897 179.827 117.413 180.615C117.929 181.396 118.702 181.786 119.733 181.786C120.872 181.786 121.696 181.403 122.204 180.637C122.713 179.87 122.967 178.717 122.967 177.178Z" fill="#569CD6"/>
      <path d="M135.75 183V175.534C135.75 174.56 135.56 173.837 135.181 173.364C134.808 172.892 134.21 172.655 133.387 172.655C132.499 172.655 131.768 172.981 131.195 173.633C130.63 174.277 130.347 175.155 130.347 176.265V183H128.413V173.858C128.413 172.505 128.392 171.678 128.349 171.377H130.175C130.182 171.413 130.189 171.509 130.196 171.667C130.203 171.825 130.211 172.007 130.218 172.215C130.232 172.415 130.246 172.799 130.261 173.364H130.293C131.045 171.896 132.284 171.162 134.01 171.162C135.249 171.162 136.173 171.499 136.781 172.172C137.39 172.838 137.694 173.866 137.694 175.255V183H135.75Z" fill="#569CD6"/>
      <path d="M151.025 179.681C151.025 180.784 150.606 181.65 149.769 182.28C148.938 182.903 147.785 183.215 146.31 183.215C144.834 183.215 143.71 182.986 142.937 182.527C142.17 182.062 141.669 181.331 141.433 180.336L143.141 180.003C143.277 180.619 143.567 181.07 144.011 181.356C144.462 181.636 145.228 181.775 146.31 181.775C148.243 181.775 149.21 181.163 149.21 179.938C149.21 179.48 149.035 179.111 148.684 178.832C148.333 178.546 147.796 178.313 147.072 178.134C145.182 177.668 143.982 177.303 143.474 177.038C142.965 176.773 142.575 176.444 142.303 176.05C142.031 175.649 141.895 175.151 141.895 174.557C141.895 173.504 142.274 172.68 143.033 172.086C143.792 171.492 144.892 171.194 146.331 171.194C147.591 171.194 148.598 171.434 149.35 171.914C150.102 172.387 150.571 173.078 150.757 173.987L149.017 174.202C148.938 173.687 148.684 173.296 148.254 173.031C147.824 172.766 147.183 172.634 146.331 172.634C144.576 172.634 143.699 173.174 143.699 174.256C143.699 174.686 143.846 175.029 144.14 175.287C144.44 175.545 144.92 175.753 145.579 175.91L146.857 176.243C148.025 176.53 148.863 176.812 149.371 177.092C149.887 177.371 150.291 177.722 150.585 178.145C150.879 178.56 151.025 179.072 151.025 179.681Z" fill="#569CD6"/>
      <path d="M154.893 172.902V171.377H156.719L157.342 168.348H158.631V171.377H163.271V172.902H158.631V179.906C158.631 180.472 158.781 180.891 159.082 181.163C159.39 181.435 159.891 181.571 160.586 181.571C161.546 181.571 162.609 181.45 163.776 181.206V182.678C162.566 183.007 161.367 183.172 160.178 183.172C159.018 183.172 158.147 182.928 157.567 182.441C156.987 181.947 156.697 181.17 156.697 180.11V172.902H154.893Z" fill="#569CD6"/>
      <path d="M190.213 183H188.021L186.485 177.94L185.873 175.771L185.454 177.264L183.649 183H181.469L179.503 171.377H181.415L182.414 177.897C182.65 179.788 182.769 180.955 182.769 181.399C183.048 180.254 183.256 179.487 183.392 179.101L184.842 174.546H186.915L188.312 179.111C188.541 179.863 188.738 180.626 188.902 181.399C188.902 181.185 188.917 180.916 188.945 180.594C188.974 180.271 189.01 179.942 189.053 179.605C189.096 179.262 189.139 178.936 189.182 178.628C189.225 178.32 189.257 178.076 189.278 177.897L190.363 171.377H192.254L190.213 183Z" fill="#4ADE80"/>
      <path d="M195.949 177.597C195.949 178.9 196.236 179.921 196.809 180.658C197.389 181.396 198.18 181.765 199.183 181.765C199.92 181.765 200.565 181.607 201.116 181.292C201.675 180.97 202.047 180.533 202.233 179.981L203.931 180.465C203.616 181.353 203.035 182.033 202.19 182.506C201.353 182.979 200.35 183.215 199.183 183.215C197.493 183.215 196.193 182.688 195.283 181.636C194.374 180.583 193.919 179.076 193.919 177.113C193.919 175.201 194.363 173.733 195.251 172.709C196.146 171.678 197.435 171.162 199.118 171.162C200.801 171.162 202.076 171.674 202.942 172.698C203.809 173.722 204.242 175.269 204.242 177.339V177.597H195.949ZM199.14 172.591C198.18 172.591 197.421 172.906 196.862 173.536C196.304 174.159 196.007 175.019 195.971 176.114H202.244C202.044 173.765 201.009 172.591 199.14 172.591Z" fill="#4ADE80"/>
      <path d="M217.412 177.135C217.412 179.169 217.047 180.69 216.316 181.7C215.593 182.71 214.555 183.215 213.201 183.215C211.454 183.215 210.258 182.556 209.613 181.238H209.592C209.592 181.582 209.577 181.94 209.549 182.312C209.527 182.685 209.509 182.914 209.495 183H207.626C207.669 182.613 207.69 181.815 207.69 180.604V167.059H209.624V171.603C209.624 172.068 209.61 172.63 209.581 173.289H209.624C210.276 171.857 211.472 171.141 213.212 171.141C216.012 171.141 217.412 173.139 217.412 177.135ZM215.414 177.199C215.414 175.595 215.192 174.435 214.748 173.719C214.311 172.995 213.624 172.634 212.686 172.634C211.618 172.634 210.841 173.028 210.354 173.815C209.868 174.596 209.624 175.781 209.624 177.371C209.624 178.868 209.86 179.978 210.333 180.701C210.806 181.424 211.583 181.786 212.664 181.786C213.631 181.786 214.329 181.414 214.759 180.669C215.196 179.917 215.414 178.76 215.414 177.199Z" fill="#4ADE80"/>
      <path d="M233.375 173.805V172.215H244.063V173.805H233.375ZM233.375 179.305V177.715H244.063V179.305H233.375Z" fill="white"/>
      <path d="M271.327 174.89C271.327 177.024 271.03 178.725 270.436 179.992C269.848 181.253 269.053 181.883 268.051 181.883C267.027 181.883 266.515 181.321 266.515 180.196V180.11L266.536 179.788H266.472C266.228 180.418 265.884 180.927 265.44 181.313C265.004 181.693 264.506 181.883 263.947 181.883C263.188 181.883 262.594 181.525 262.164 180.809C261.742 180.092 261.53 179.072 261.53 177.747C261.53 176.594 261.702 175.506 262.046 174.481C262.397 173.457 262.869 172.652 263.464 172.064C264.065 171.47 264.735 171.173 265.473 171.173C265.981 171.173 266.396 171.323 266.719 171.624C267.048 171.918 267.292 172.387 267.449 173.031H267.503L267.847 171.409H269.093L268.029 176.855C267.743 178.359 267.6 179.355 267.6 179.842C267.6 180.472 267.775 180.787 268.126 180.787C268.685 180.787 269.139 180.254 269.49 179.187C269.848 178.119 270.027 176.694 270.027 174.911C270.027 172.949 269.637 171.359 268.856 170.142C268.076 168.917 267.041 168.305 265.752 168.305C264.692 168.305 263.754 168.691 262.938 169.465C262.121 170.231 261.491 171.312 261.047 172.709C260.603 174.105 260.381 175.695 260.381 177.479C260.381 179.691 260.796 181.46 261.627 182.785C262.458 184.11 263.596 184.772 265.043 184.772C265.716 184.772 266.364 184.647 266.987 184.396C267.61 184.146 268.284 183.705 269.007 183.075L269.77 184.01C268.946 184.719 268.147 185.234 267.374 185.557C266.601 185.879 265.788 186.04 264.936 186.04C263.754 186.04 262.712 185.693 261.81 184.998C260.914 184.303 260.227 183.304 259.747 182.001C259.267 180.69 259.027 179.183 259.027 177.479C259.027 175.43 259.303 173.615 259.854 172.032C260.406 170.442 261.194 169.218 262.218 168.358C263.242 167.492 264.427 167.059 265.773 167.059C266.905 167.059 267.886 167.384 268.717 168.036C269.555 168.681 270.199 169.597 270.65 170.786C271.102 171.968 271.327 173.336 271.327 174.89ZM266.88 174.578C266.88 173.819 266.755 173.246 266.504 172.859C266.253 172.465 265.917 172.269 265.494 172.269C265.043 172.269 264.628 172.508 264.248 172.988C263.868 173.461 263.561 174.134 263.324 175.008C263.095 175.874 262.98 176.78 262.98 177.726C262.98 179.738 263.389 180.744 264.205 180.744C264.735 180.744 265.211 180.404 265.634 179.724C266.056 179.043 266.368 178.141 266.568 177.017C266.776 175.892 266.88 175.079 266.88 174.578Z" fill="#FFD885"/>
      <path d="M279.771 181.475H283.853V183H273.304V181.475H277.837V172.902H274.41V171.377H279.771V181.475ZM277.622 169.121V167.059H279.771V169.121H277.622Z" fill="#FFD885"/>
      <path d="M290.685 183V175.631C290.685 174.528 290.595 173.758 290.416 173.321C290.244 172.877 289.925 172.655 289.46 172.655C289.002 172.655 288.629 172.999 288.343 173.687C288.063 174.374 287.924 175.305 287.924 176.479V183H286.108V173.858C286.108 172.505 286.087 171.678 286.044 171.377H287.645L287.709 172.741V173.257H287.73C287.974 172.526 288.282 171.996 288.654 171.667C289.027 171.33 289.492 171.162 290.051 171.162C290.681 171.162 291.15 171.334 291.458 171.678C291.773 172.021 291.999 172.551 292.135 173.268H292.156C292.443 172.508 292.783 171.968 293.177 171.646C293.578 171.323 294.083 171.162 294.691 171.162C295.536 171.162 296.142 171.47 296.507 172.086C296.872 172.702 297.055 173.758 297.055 175.255V183H295.25V175.631C295.25 174.528 295.16 173.758 294.981 173.321C294.81 172.877 294.491 172.655 294.025 172.655C293.553 172.655 293.177 172.956 292.897 173.558C292.625 174.159 292.489 175.062 292.489 176.265V183H290.685Z" fill="#FFD885"/>
      <path d="M309.902 177.135C309.902 181.188 308.499 183.215 305.691 183.215C303.93 183.215 302.744 182.556 302.136 181.238H302.082C302.111 181.296 302.125 181.89 302.125 183.021V187.565H300.181V173.783C300.181 172.566 300.159 171.764 300.116 171.377H301.996C302.003 171.406 302.014 171.513 302.028 171.699C302.043 171.878 302.057 172.147 302.071 172.505C302.093 172.856 302.104 173.117 302.104 173.289H302.146C302.505 172.537 302.959 171.993 303.511 171.656C304.069 171.312 304.796 171.141 305.691 171.141C307.109 171.141 308.166 171.631 308.86 172.612C309.555 173.586 309.902 175.094 309.902 177.135ZM307.904 177.135C307.904 175.516 307.686 174.363 307.249 173.676C306.812 172.981 306.125 172.634 305.187 172.634C304.105 172.634 303.325 173.028 302.845 173.815C302.365 174.596 302.125 175.781 302.125 177.371C302.125 178.896 302.365 180.014 302.845 180.723C303.325 181.432 304.098 181.786 305.165 181.786C306.118 181.786 306.812 181.424 307.249 180.701C307.686 179.978 307.904 178.789 307.904 177.135Z" fill="#FFD885"/>
      <path d="M323.19 177.178C323.19 179.133 322.739 180.63 321.837 181.668C320.942 182.699 319.646 183.215 317.948 183.215C316.287 183.215 315.012 182.692 314.124 181.646C313.243 180.601 312.803 179.111 312.803 177.178C312.803 175.18 313.254 173.679 314.156 172.677C315.066 171.667 316.351 171.162 318.013 171.162C319.76 171.162 321.06 171.66 321.912 172.655C322.764 173.651 323.19 175.158 323.19 177.178ZM321.16 177.178C321.16 175.638 320.913 174.489 320.419 173.729C319.932 172.97 319.141 172.591 318.045 172.591C316.935 172.591 316.122 172.978 315.606 173.751C315.091 174.524 314.833 175.667 314.833 177.178C314.833 178.682 315.091 179.827 315.606 180.615C316.122 181.396 316.896 181.786 317.927 181.786C319.065 181.786 319.889 181.403 320.397 180.637C320.906 179.87 321.16 178.717 321.16 177.178Z" fill="#FFD885"/>
      <path d="M335.845 173.139C335.043 173.003 334.284 172.935 333.567 172.935C332.414 172.935 331.483 173.368 330.774 174.234C330.065 175.101 329.711 176.204 329.711 177.543V183H327.777V175.47C327.777 174.925 327.727 174.285 327.627 173.547C327.534 172.809 327.398 172.086 327.219 171.377H329.056C329.342 172.365 329.514 173.26 329.571 174.062H329.625C329.983 173.26 330.334 172.673 330.678 172.301C331.021 171.921 331.43 171.638 331.902 171.452C332.375 171.259 332.951 171.162 333.632 171.162C334.377 171.162 335.114 171.223 335.845 171.345V173.139Z" fill="#FFD885"/>
      <path d="M339.873 172.902V171.377H341.699L342.322 168.348H343.611V171.377H348.252V172.902H343.611V179.906C343.611 180.472 343.762 180.891 344.062 181.163C344.37 181.435 344.872 181.571 345.566 181.571C346.526 181.571 347.59 181.45 348.757 181.206V182.678C347.547 183.007 346.347 183.172 345.158 183.172C343.998 183.172 343.128 182.928 342.548 182.441C341.968 181.947 341.678 181.17 341.678 180.11V172.902H339.873Z" fill="#FFD885"/>
      <path d="M371.605 173.923H370.091L369.65 167.059H372.057L371.605 173.923Z" fill="#CE9178"/>
      <path d="M388.857 179.681C388.857 180.784 388.438 181.65 387.601 182.28C386.77 182.903 385.617 183.215 384.142 183.215C382.666 183.215 381.542 182.986 380.769 182.527C380.002 182.062 379.501 181.331 379.265 180.336L380.973 180.003C381.109 180.619 381.399 181.07 381.843 181.356C382.294 181.636 383.06 181.775 384.142 181.775C386.075 181.775 387.042 181.163 387.042 179.938C387.042 179.48 386.867 179.111 386.516 178.832C386.165 178.546 385.628 178.313 384.904 178.134C383.014 177.668 381.814 177.303 381.306 177.038C380.797 176.773 380.407 176.444 380.135 176.05C379.863 175.649 379.727 175.151 379.727 174.557C379.727 173.504 380.106 172.68 380.865 172.086C381.624 171.492 382.724 171.194 384.163 171.194C385.424 171.194 386.43 171.434 387.182 171.914C387.934 172.387 388.403 173.078 388.589 173.987L386.849 174.202C386.77 173.687 386.516 173.296 386.086 173.031C385.656 172.766 385.015 172.634 384.163 172.634C382.409 172.634 381.531 173.174 381.531 174.256C381.531 174.686 381.678 175.029 381.972 175.287C382.272 175.545 382.752 175.753 383.411 175.91L384.689 176.243C385.857 176.53 386.695 176.812 387.203 177.092C387.719 177.371 388.123 177.722 388.417 178.145C388.711 178.56 388.857 179.072 388.857 179.681Z" fill="#CE9178"/>
      <path d="M402.393 177.135C402.393 181.188 400.989 183.215 398.182 183.215C396.42 183.215 395.235 182.556 394.626 181.238H394.572C394.601 181.296 394.615 181.89 394.615 183.021V187.565H392.671V173.783C392.671 172.566 392.649 171.764 392.606 171.377H394.486C394.493 171.406 394.504 171.513 394.519 171.699C394.533 171.878 394.547 172.147 394.562 172.505C394.583 172.856 394.594 173.117 394.594 173.289H394.637C394.995 172.537 395.45 171.993 396.001 171.656C396.56 171.312 397.286 171.141 398.182 171.141C399.6 171.141 400.656 171.631 401.351 172.612C402.045 173.586 402.393 175.094 402.393 177.135ZM400.395 177.135C400.395 175.516 400.176 174.363 399.739 173.676C399.302 172.981 398.615 172.634 397.677 172.634C396.595 172.634 395.815 173.028 395.335 173.815C394.855 174.596 394.615 175.781 394.615 177.371C394.615 178.896 394.855 180.014 395.335 180.723C395.815 181.432 396.588 181.786 397.655 181.786C398.608 181.786 399.302 181.424 399.739 180.701C400.176 179.978 400.395 178.789 400.395 177.135Z" fill="#CE9178"/>
      <path d="M407.355 177.597C407.355 178.9 407.642 179.921 408.215 180.658C408.795 181.396 409.586 181.765 410.589 181.765C411.326 181.765 411.971 181.607 412.522 181.292C413.081 180.97 413.453 180.533 413.64 179.981L415.337 180.465C415.022 181.353 414.442 182.033 413.597 182.506C412.759 182.979 411.756 183.215 410.589 183.215C408.899 183.215 407.599 182.688 406.689 181.636C405.78 180.583 405.325 179.076 405.325 177.113C405.325 175.201 405.769 173.733 406.657 172.709C407.552 171.678 408.841 171.162 410.524 171.162C412.207 171.162 413.482 171.674 414.349 172.698C415.215 173.722 415.648 175.269 415.648 177.339V177.597H407.355ZM410.546 172.591C409.586 172.591 408.827 172.906 408.269 173.536C407.71 174.159 407.413 175.019 407.377 176.114H413.65C413.45 173.765 412.415 172.591 410.546 172.591Z" fill="#CE9178"/>
      <path d="M420.568 177.597C420.568 178.9 420.855 179.921 421.428 180.658C422.008 181.396 422.799 181.765 423.802 181.765C424.539 181.765 425.184 181.607 425.735 181.292C426.294 180.97 426.666 180.533 426.853 179.981L428.55 180.465C428.235 181.353 427.655 182.033 426.81 182.506C425.972 182.979 424.969 183.215 423.802 183.215C422.112 183.215 420.812 182.688 419.902 181.636C418.993 180.583 418.538 179.076 418.538 177.113C418.538 175.201 418.982 173.733 419.87 172.709C420.765 171.678 422.054 171.162 423.737 171.162C425.42 171.162 426.695 171.674 427.562 172.698C428.428 173.722 428.861 175.269 428.861 177.339V177.597H420.568ZM423.759 172.591C422.799 172.591 422.04 172.906 421.481 173.536C420.923 174.159 420.626 175.019 420.59 176.114H426.863C426.663 173.765 425.628 172.591 423.759 172.591Z" fill="#CE9178"/>
      <path d="M439.582 181.131C439.231 181.883 438.766 182.431 438.186 182.774C437.605 183.111 436.882 183.279 436.016 183.279C434.569 183.279 433.506 182.782 432.825 181.786C432.145 180.791 431.805 179.29 431.805 177.285C431.805 173.232 433.208 171.205 436.016 171.205C436.882 171.205 437.605 171.359 438.186 171.667C438.773 171.975 439.242 172.48 439.593 173.182H439.614L439.593 171.56V167.059H441.526V180.604C441.526 181.815 441.548 182.613 441.591 183H439.743C439.715 182.893 439.689 182.631 439.668 182.216C439.646 181.8 439.636 181.439 439.636 181.131H439.582ZM433.803 177.221C433.803 178.811 434.014 179.971 434.437 180.701C434.866 181.424 435.561 181.786 436.521 181.786C437.566 181.786 438.34 181.41 438.841 180.658C439.342 179.899 439.593 178.696 439.593 177.049C439.593 175.509 439.349 174.388 438.862 173.687C438.382 172.985 437.609 172.634 436.542 172.634C435.575 172.634 434.877 173.003 434.447 173.74C434.018 174.478 433.803 175.638 433.803 177.221Z" fill="#CE9178"/>
      <path d="M450.883 173.923H449.368L448.928 167.059H451.334L450.883 173.923Z" fill="#CE9178"/>
    </g>

    <g class="sub-right">
      <path d="M356.728 177.307C356.728 179.276 357.032 181.056 357.641 182.646C358.249 184.235 359.241 185.875 360.616 187.565H358.575C357.2 185.875 356.212 184.239 355.61 182.656C355.016 181.066 354.719 179.276 354.719 177.285C354.719 175.33 355.012 173.568 355.6 172C356.187 170.424 357.179 168.777 358.575 167.059H360.616C359.241 168.749 358.249 170.392 357.641 171.989C357.032 173.579 356.728 175.352 356.728 177.307Z" fill="#D4D4D4"/>
      <path class="cursor-blink" d="M475.289 174.589V171.377H477.813V174.589H475.289ZM473.742 186.899L475.558 179.788H478.404L475.063 186.899H473.742Z" fill="#D4D4D4"/>
      <path d="M466.255 177.285C466.255 179.29 465.958 181.084 465.363 182.667C464.776 184.243 463.795 185.875 462.42 187.565H460.357C461.761 185.84 462.764 184.182 463.365 182.592C463.967 180.995 464.268 179.233 464.268 177.307C464.268 175.387 463.967 173.633 463.365 172.043C462.764 170.446 461.761 168.785 460.357 167.059H462.42C463.816 168.777 464.805 170.417 465.385 171.979C465.965 173.54 466.255 175.309 466.255 177.285Z" fill="white"/>
    </g>

    <g id="logo-mark" clip-path="url(#clip0_8_3)">
      
      <g class="logo-chunk chunk-left">
        <path d="M946.677 78.7542 H1077.4 L1057.08 98.5869 H965.712 L965.649 117.676 L946.677 98.5869 Z" fill="#4ADE80"/>
      </g>

      <g class="logo-chunk chunk-right">
        <path d="M1058.58 96.3896L1043.81 82.3233L997.658 126.269L1012.43 140.336L1058.58 96.3896Z" fill="#4ADE80"/>
        <path d="M1004.36 119.742L1025.4 139.822H983.317L1004.36 119.742Z" fill="#4ADE80"/>
      </g>

      <g class="logo-chunk chunk-left">
        <path d="M1030.47 151.474L1010 131.641H1050.94L1030.47 151.474Z" fill="#4ADE80"/>
        <path d="M1032.9 148.942L1018.13 134.876L971.984 178.822L986.755 192.888L1032.9 148.942Z" fill="#4ADE80"/>
      </g>

      <g class="logo-chunk chunk-right">
        <path d="M951.804 198.08 H1080.55 V178.248 L1061.53 159.096 V178.248 H972.129 Z" fill="#4ADE80"/>
      </g>

      <g clip-path="url(#clipLogoGreenExact)">
        <rect id="shine-rect" x="900" y="60" width="260" height="170" fill="url(#shineGrad)"/>
      </g>
    </g>

    <defs>
      <linearGradient id="shineGrad" x1="0%" y1="0%" x2="100%" y2="0%">
        <stop offset="0%"   stop-color="white" stop-opacity="0"/>
        <stop offset="35%"  stop-color="white" stop-opacity="0.14"/>
        <stop offset="47%"  stop-color="white" stop-opacity="0.72"/>
        <stop offset="50%"  stop-color="#ccffe0" stop-opacity="1"/>
        <stop offset="53%"  stop-color="white" stop-opacity="0.72"/>
        <stop offset="65%"  stop-color="white" stop-opacity="0.14"/>
        <stop offset="100%" stop-color="white" stop-opacity="0"/>
      </linearGradient>

      <clipPath id="svgClip">
        <rect width="1181" height="277"/>
      </clipPath>

      <clipPath id="clip0_8_3">
        <rect width="134.531" height="120" fill="white" transform="translate(946.469 78.5)"/>
      </clipPath>

      <clipPath id="clipLogoGreenExact" clipPathUnits="userSpaceOnUse">
        <path d="M946.677 78.7542 H1077.4 L1057.08 98.5869 H965.712 L965.649 117.676 L946.677 98.5869 Z"/>
        <path d="M1058.58 96.3896L1043.81 82.3233L997.658 126.269L1012.43 140.336L1058.58 96.3896Z"/>
        <path d="M1004.36 119.742L1025.4 139.822H983.317L1004.36 119.742Z"/>
        <path d="M1030.47 151.474L1010 131.641H1050.94L1030.47 151.474Z"/>
        <path d="M1032.9 148.942L1018.13 134.876L971.984 178.822L986.755 192.888L1032.9 148.942Z"/>
        <path d="M951.804 198.08 H1080.55 V178.248 L1061.53 159.096 V178.248 H972.129 Z"/>
      </clipPath>
    </defs>
</svg>