<svg width="527" height="513" viewBox="0 0 527 513" fill="none" xmlns="http://www.w3.org/2000/svg">
<rect width="527" height="512.03" fill="white"/>
<rect x="76.6014" y="96.5525" width="260.618" height="53.007" fill="black"/>
<path d="M371.674 149.559L317.352 95.8899L425.995 95.8899L371.674 149.559Z" fill="black"/>
<rect width="54.5167" height="170.322" transform="matrix(0.724184 0.689607 -0.724184 0.689607 336.204 106.092)" fill="black"/>
<path d="M230.763 206.1L286.998 259.77H174.529L230.763 206.1Z" fill="black"/>
<path d="M300.556 290.911L245.852 237.904H355.26L300.556 290.911Z" fill="black"/>
<rect width="54.5167" height="170.322" transform="matrix(0.724184 0.689607 -0.724184 0.689607 267.584 246.55)" fill="black"/>
<path d="M144.627 362.471L198.948 416.141H90.3056L144.627 362.471Z" fill="black"/>
<path d="M198.959 415.478L144.255 363.796H253.663L198.959 415.478Z" fill="black"/>
<rect x="184.382" y="362.471" width="250.016" height="53.007" fill="black"/>
<path d="M383.571 363.801L383.571 311.282L435.003 363.801L383.571 363.801Z" fill="black"/>
<path d="M127.476 148.06L127.307 200.579L76.045 147.91L127.476 148.06Z" fill="black"/>
</svg>
